<?xml version='1.0' encoding='UTF-8' standalone='no'?>
<!-- Created with Fritzing (http://www.fritzing.org/) -->
<svg xmlns="http://www.w3.org/2000/svg" width="2.3622in" x="0in" version="1.2" y="0in"  height="1.9685in" viewBox="0 0 170.079 141.732" baseProfile="tiny" xmlns:svg="http://www.w3.org/2000/svg">
 <g transform="matrix(-1, 0, 0, 1, 170.079, 0)">
  <g partID="2275020">
   <g id="board">
    <rect width="169.503" x="0.576" y="0.576" fill="none" height="141.156" stroke="black" fill-opacity="0.5" id="boardoutline" stroke-width="0.5"/>
   </g>
  </g>
  <g partID="2379360">
   <g transform="translate(3.168,3.168)">
    <g  id="groundplane">
     <polygon fill="black" points="0,0,0,3.456,28.656,3.456,28.656,6.192,124.992,6.192,124.992,6.336,125.856,6.336,125.856,6.48,126.144,6.48,126.144,6.624,126.576,6.624,126.576,6.768,126.72,6.768,126.72,6.912,127.008,6.912,127.008,7.056,127.152,7.056,127.152,7.2,127.44,7.2,127.44,7.344,127.584,7.344,127.584,7.488,127.728,7.488,127.728,7.632,127.872,7.632,127.872,7.776,128.016,7.776,128.016,7.92,128.16,7.92,128.16,8.064,128.304,8.064,128.304,8.208,128.448,8.208,128.448,8.496,128.592,8.496,128.592,8.64,128.736,8.64,128.736,8.928,128.88,8.928,128.88,9.072,129.024,9.072,129.024,9.36,129.168,9.36,129.168,9.792,129.312,9.792,129.312,10.512,129.456,10.512,129.456,12.24,129.312,12.24,129.312,12.96,129.168,12.96,129.168,13.248,129.024,13.248,129.024,13.536,143.28,13.536,143.28,13.68,143.856,13.68,143.856,13.824,144.288,13.824,144.288,13.968,144.576,13.968,144.576,14.112,144.864,14.112,144.864,14.256,145.008,14.256,145.008,14.4,145.296,14.4,145.296,14.544,145.44,14.544,145.44,14.688,145.584,14.688,145.584,14.832,145.728,14.832,145.728,14.976,145.872,14.976,145.872,15.12,146.016,15.12,146.016,15.264,146.16,15.264,146.16,15.408,146.304,15.408,146.304,15.552,146.448,15.552,146.448,15.84,146.592,15.84,146.592,15.984,146.736,15.984,146.736,16.272,146.88,16.272,146.88,16.56,147.024,16.56,147.024,16.992,147.168,16.992,147.168,17.424,147.312,17.424,147.312,19.728,147.168,19.728,147.168,20.16,147.024,20.16,147.024,21.744,150.768,21.744,150.768,21.888,151.2,21.888,151.2,22.032,151.632,22.032,151.632,22.176,151.776,22.176,151.776,22.32,152.064,22.32,152.064,22.464,152.208,22.464,152.208,22.608,152.352,22.608,152.352,22.752,152.496,22.752,152.496,22.896,152.64,22.896,152.64,23.04,152.784,23.04,152.784,23.184,152.928,23.184,152.928,23.472,153.072,23.472,153.072,23.616,153.216,23.616,153.216,24.048,153.36,24.048,153.36,24.48,153.504,24.48,153.504,52.128,153.648,52.128,153.648,103.248,157.68,103.248,157.68,103.392,158.4,103.392,158.4,103.536,158.832,103.536,158.832,103.68,159.12,103.68,159.12,103.824,159.408,103.824,159.408,103.968,159.552,103.968,159.552,104.112,159.84,104.112,159.84,104.256,159.984,104.256,159.984,104.4,160.128,104.4,160.128,104.544,160.416,104.544,160.416,104.688,160.56,104.688,160.56,104.832,160.704,104.832,160.704,104.976,160.848,104.976,160.848,105.264,160.992,105.264,160.992,105.408,161.136,105.408,161.136,105.552,161.28,105.552,161.28,105.84,161.424,105.84,161.424,105.984,161.568,105.984,161.568,106.272,161.712,106.272,161.712,106.56,161.856,106.56,161.856,106.992,162,106.992,162,107.712,162.144,107.712,162.144,109.44,162,109.44,162,110.16,161.856,110.16,161.856,110.592,161.712,110.592,161.712,110.88,161.568,110.88,161.568,111.168,161.424,111.168,161.424,111.312,161.28,111.312,161.28,111.6,161.136,111.6,161.136,111.744,160.992,111.744,160.992,111.888,160.848,111.888,160.848,112.032,160.704,112.032,160.704,112.176,160.56,112.176,160.56,112.32,160.416,112.32,160.416,112.464,160.272,112.464,160.272,112.608,160.128,112.608,160.128,112.752,159.984,112.752,159.984,112.896,159.84,112.896,159.84,113.04,159.552,113.04,159.552,113.184,159.264,113.184,159.264,114.768,159.408,114.768,159.408,114.912,159.696,114.912,159.696,115.056,159.84,115.056,159.84,115.2,159.984,115.2,159.984,115.344,160.272,115.344,160.272,115.488,160.416,115.488,160.416,115.632,160.56,115.632,160.56,115.776,160.704,115.776,160.704,116.064,160.848,116.064,160.848,116.208,160.992,116.208,160.992,116.352,161.136,116.352,161.136,116.64,161.28,116.64,161.28,116.784,161.424,116.784,161.424,117.072,161.568,117.072,161.568,117.36,161.712,117.36,161.712,117.792,161.856,117.792,161.856,118.512,162,118.512,162,120.24,161.856,120.24,161.856,120.96,161.712,120.96,161.712,121.392,161.568,121.392,161.568,121.68,161.424,121.68,161.424,121.968,161.28,121.968,161.28,122.112,161.136,122.112,161.136,122.4,160.992,122.4,160.992,122.544,160.848,122.544,160.848,122.688,160.704,122.688,160.704,122.832,160.56,122.832,160.56,122.976,160.416,122.976,160.416,123.12,160.272,123.12,160.272,123.264,160.128,123.264,160.128,123.408,159.984,123.408,159.984,123.552,159.84,123.552,159.84,123.696,159.696,123.696,159.696,123.84,159.408,123.84,159.408,123.984,159.12,123.984,159.12,124.128,158.832,124.128,158.832,124.272,158.544,124.272,158.544,124.416,158.112,124.416,158.112,124.56,164.016,124.56,164.016,0"  stroke="none" stroke-width="0"/>
     <polygon fill="black" points="0,3.456,0,95.04,11.52,95.04,11.52,94.896,10.8,94.896,10.8,94.752,10.368,94.752,10.368,94.608,10.08,94.608,10.08,94.464,9.648,94.464,9.648,94.32,9.504,94.32,9.504,94.176,9.216,94.176,9.216,94.032,8.928,94.032,8.928,93.888,8.784,93.888,8.784,93.744,8.496,93.744,8.496,93.6,8.352,93.6,8.352,93.456,8.208,93.456,8.208,93.312,8.064,93.312,8.064,93.168,7.776,93.168,7.776,93.024,7.632,93.024,7.632,92.88,7.488,92.88,7.488,92.736,7.344,92.736,7.344,92.448,7.2,92.448,7.2,92.304,7.056,92.304,7.056,92.16,6.912,92.16,6.912,92.016,6.768,92.016,6.768,91.728,6.624,91.728,6.624,91.584,6.48,91.584,6.48,91.296,6.336,91.296,6.336,91.008,6.192,91.008,6.192,90.72,6.048,90.72,6.048,90.432,5.904,90.432,5.904,90.144,5.76,90.144,5.76,89.568,5.616,89.568,5.616,88.848,5.472,88.848,5.472,86.544,5.616,86.544,5.616,85.824,5.76,85.824,5.76,85.248,5.904,85.248,5.904,84.96,6.048,84.96,6.048,84.528,6.192,84.528,6.192,84.24,6.336,84.24,6.336,84.096,6.48,84.096,6.48,83.808,6.624,83.808,6.624,83.664,6.768,83.664,6.768,83.376,6.912,83.376,6.912,83.232,7.056,83.232,7.056,83.088,7.2,83.088,7.2,82.8,7.344,82.8,7.344,82.656,7.488,82.656,7.488,82.512,7.632,82.512,7.632,82.368,7.776,82.368,7.776,82.224,7.92,82.224,7.92,82.08,8.208,82.08,8.208,81.936,8.352,81.936,8.352,81.792,8.496,81.792,8.496,81.648,8.64,81.648,8.64,81.504,8.784,81.504,8.784,17.568,8.928,17.568,8.928,16.848,9.072,16.848,9.072,16.56,9.216,16.56,9.216,16.272,9.36,16.272,9.36,16.128,9.504,16.128,9.504,15.84,9.648,15.84,9.648,15.696,9.792,15.696,9.792,15.552,9.936,15.552,9.936,15.408,10.08,15.408,10.08,15.264,10.224,15.264,10.224,15.12,10.512,15.12,10.512,14.976,10.8,14.976,10.8,14.832,11.088,14.832,11.088,14.688,11.52,14.688,11.52,14.544,18.288,14.544,18.288,3.456"  stroke="none" stroke-width="0"/>
     <polygon fill="black" points="28.656,6.192,28.656,13.824,27.504,13.824,27.504,15.264,27.648,15.264,27.648,15.552,27.792,15.552,27.792,15.696,27.936,15.696,27.936,15.984,28.08,15.984,28.08,16.128,28.224,16.128,28.224,16.416,28.368,16.416,28.368,16.848,28.512,16.848,28.512,17.28,28.656,17.28,28.656,19.872,28.512,19.872,28.512,20.304,28.368,20.304,28.368,20.736,28.224,20.736,28.224,21.024,28.08,21.024,28.08,21.168,27.936,21.168,27.936,21.456,27.792,21.456,27.792,21.6,27.648,21.6,27.648,21.744,27.504,21.744,27.504,22.032,27.36,22.032,27.36,22.176,27.216,22.176,27.216,23.328,28.944,23.328,28.944,23.184,29.808,23.184,29.808,23.04,30.528,23.04,30.528,22.896,31.248,22.896,31.248,22.752,32.112,22.752,32.112,22.608,32.832,22.608,32.832,22.464,33.552,22.464,33.552,22.32,34.272,22.32,34.272,22.176,35.136,22.176,35.136,22.032,35.856,22.032,35.856,21.888,36.576,21.888,36.576,21.744,40.32,21.744,40.32,20.016,40.176,20.016,40.176,19.296,40.032,19.296,40.032,17.856,40.176,17.856,40.176,17.136,40.32,17.136,40.32,16.704,40.464,16.704,40.464,16.416,40.608,16.416,40.608,16.128,40.752,16.128,40.752,15.84,40.896,15.84,40.896,15.696,41.04,15.696,41.04,15.552,41.184,15.552,41.184,15.264,41.328,15.264,41.328,15.12,41.472,15.12,41.472,14.976,41.616,14.976,41.616,14.832,41.76,14.832,41.76,14.688,41.904,14.688,41.904,10.368,42.048,10.368,42.048,9.936,42.192,9.936,42.192,9.504,42.336,9.504,42.336,9.36,42.48,9.36,42.48,9.216,42.624,9.216,42.624,8.928,42.768,8.928,42.768,8.784,43.056,8.784,43.056,8.64,43.2,8.64,43.2,8.496,43.488,8.496,43.488,8.352,43.92,8.352,43.92,8.208,91.44,8.208,91.44,8.064,91.584,8.064,91.584,7.92,91.728,7.92,91.728,7.776,91.872,7.776,91.872,7.632,92.016,7.632,92.016,7.488,92.16,7.488,92.16,7.344,92.448,7.344,92.448,7.2,92.592,7.2,92.592,7.056,92.736,7.056,92.736,6.912,93.024,6.912,93.024,6.768,93.312,6.768,93.312,6.624,93.6,6.624,93.6,6.48,94.032,6.48,94.032,6.336,94.752,6.336,94.752,6.192"  stroke="none" stroke-width="0"/>
     <polygon fill="black" points="96.192,6.192,96.192,6.336,97.056,6.336,97.056,6.48,97.344,6.48,97.344,6.624,97.776,6.624,97.776,6.768,97.92,6.768,97.92,6.912,98.208,6.912,98.208,7.056,98.352,7.056,98.352,7.2,99.792,7.2,99.792,7.056,99.936,7.056,99.936,6.912,100.224,6.912,100.224,6.768,100.512,6.768,100.512,6.624,100.8,6.624,100.8,6.48,101.232,6.48,101.232,6.336,101.952,6.336,101.952,6.192"  stroke="none" stroke-width="0"/>
     <polygon fill="black" points="103.392,6.192,103.392,6.336,104.256,6.336,104.256,6.48,104.544,6.48,104.544,6.624,104.976,6.624,104.976,6.768,105.12,6.768,105.12,6.912,105.408,6.912,105.408,7.056,105.552,7.056,105.552,7.2,106.992,7.2,106.992,7.056,107.136,7.056,107.136,6.912,107.424,6.912,107.424,6.768,107.712,6.768,107.712,6.624,108,6.624,108,6.48,108.432,6.48,108.432,6.336,109.152,6.336,109.152,6.192"  stroke="none" stroke-width="0"/>
     <polygon fill="black" points="110.592,6.192,110.592,6.336,111.456,6.336,111.456,6.48,111.744,6.48,111.744,6.624,112.176,6.624,112.176,6.768,112.32,6.768,112.32,6.912,112.608,6.912,112.608,7.056,112.752,7.056,112.752,7.2,114.192,7.2,114.192,7.056,114.336,7.056,114.336,6.912,114.624,6.912,114.624,6.768,114.912,6.768,114.912,6.624,115.2,6.624,115.2,6.48,115.632,6.48,115.632,6.336,116.352,6.336,116.352,6.192"  stroke="none" stroke-width="0"/>
     <polygon fill="black" points="117.792,6.192,117.792,6.336,118.656,6.336,118.656,6.48,118.944,6.48,118.944,6.624,119.376,6.624,119.376,6.768,119.52,6.768,119.52,6.912,119.808,6.912,119.808,7.056,119.952,7.056,119.952,7.2,121.392,7.2,121.392,7.056,121.536,7.056,121.536,6.912,121.824,6.912,121.824,6.768,122.112,6.768,122.112,6.624,122.4,6.624,122.4,6.48,122.832,6.48,122.832,6.336,123.552,6.336,123.552,6.192"  stroke="none" stroke-width="0"/>
     <polygon fill="black" points="128.88,13.536,128.88,13.824,128.736,13.824,128.736,15.408,138.384,15.408,138.384,15.264,138.528,15.264,138.528,15.12,138.672,15.12,138.672,14.976,138.816,14.976,138.816,14.832,138.96,14.832,138.96,14.688,139.104,14.688,139.104,14.544,139.392,14.544,139.392,14.4,139.536,14.4,139.536,14.256,139.824,14.256,139.824,14.112,139.968,14.112,139.968,13.968,140.4,13.968,140.4,13.824,140.688,13.824,140.688,13.68,141.264,13.68,141.264,13.536"  stroke="none" stroke-width="0"/>
     <polygon fill="black" points="16.848,22.608,16.848,63.504,22.896,63.504,22.896,63.36,22.032,63.36,22.032,63.216,21.6,63.216,21.6,63.072,21.312,63.072,21.312,62.928,21.024,62.928,21.024,62.784,20.736,62.784,20.736,62.64,20.592,62.64,20.592,62.496,20.304,62.496,20.304,62.352,20.16,62.352,20.16,62.208,20.016,62.208,20.016,62.064,19.872,62.064,19.872,61.92,19.728,61.92,19.728,61.776,19.584,61.776,19.584,61.632,19.44,61.632,19.44,61.488,19.296,61.488,19.296,61.2,19.152,61.2,19.152,61.056,19.008,61.056,19.008,60.768,18.864,60.768,18.864,60.624,18.72,60.624,18.72,60.192,18.576,60.192,18.576,59.904,18.432,59.904,18.432,59.328,18.288,59.328,18.288,57.168,18.432,57.168,18.432,56.592,18.576,56.592,18.576,56.304,18.72,56.304,18.72,56.016,18.864,56.016,18.864,55.728,19.008,55.728,19.008,55.44,19.152,55.44,19.152,55.296,19.296,55.296,19.296,55.008,19.44,55.008,19.44,54.864,19.584,54.864,19.584,54.72,19.728,54.72,19.728,54.576,19.872,54.576,19.872,54.432,20.016,54.432,20.016,54.288,20.16,54.288,20.16,54.144,20.304,54.144,20.304,54,20.592,54,20.592,52.56,20.304,52.56,20.304,52.416,20.16,52.416,20.16,52.272,20.016,52.272,20.016,52.128,19.872,52.128,19.872,51.984,19.728,51.984,19.728,51.84,19.584,51.84,19.584,51.696,19.44,51.696,19.44,51.552,19.296,51.552,19.296,51.264,19.152,51.264,19.152,51.12,19.008,51.12,19.008,50.832,18.864,50.832,18.864,50.688,18.72,50.688,18.72,50.4,18.576,50.4,18.576,49.968,18.432,49.968,18.432,49.392,18.288,49.392,18.288,47.232,18.432,47.232,18.432,46.656,18.576,46.656,18.576,46.368,18.72,46.368,18.72,46.08,18.864,46.08,18.864,45.792,19.008,45.792,19.008,45.504,19.152,45.504,19.152,45.36,19.296,45.36,19.296,45.072,19.44,45.072,19.44,44.928,19.584,44.928,19.584,44.784,19.728,44.784,19.728,44.64,19.872,44.64,19.872,44.496,20.016,44.496,20.016,44.352,20.16,44.352,20.16,44.208,20.448,44.208,20.448,44.064,20.592,44.064,20.592,42.624,20.304,42.624,20.304,42.48,20.16,42.48,20.16,42.336,20.016,42.336,20.016,42.192,19.872,42.192,19.872,42.048,19.728,42.048,19.728,41.904,19.584,41.904,19.584,41.76,19.44,41.76,19.44,41.616,19.296,41.616,19.296,41.472,19.152,41.472,19.152,41.184,19.008,41.184,19.008,40.896,18.864,40.896,18.864,40.752,18.72,40.752,18.72,40.464,18.576,40.464,18.576,40.032,18.432,40.032,18.432,39.456,18.288,39.456,18.288,37.296,18.432,37.296,18.432,36.72,18.576,36.72,18.576,36.432,18.72,36.432,18.72,36.144,18.864,36.144,18.864,35.856,19.008,35.856,19.008,35.568,19.152,35.568,19.152,35.424,19.296,35.424,19.296,35.28,19.44,35.28,19.44,34.992,19.584,34.992,19.584,34.848,19.728,34.848,19.728,34.704,19.872,34.704,19.872,34.56,20.016,34.56,20.016,34.416,20.16,34.416,20.16,34.272,20.448,34.272,20.448,32.688,20.304,32.688,20.304,32.544,20.16,32.544,20.16,32.4,20.016,32.4,20.016,32.256,19.872,32.256,19.872,32.112,19.728,32.112,19.728,31.968,19.584,31.968,19.584,31.824,19.44,31.824,19.44,31.68,19.296,31.68,19.296,31.536,19.152,31.536,19.152,31.248,19.008,31.248,19.008,31.104,18.864,31.104,18.864,30.816,18.72,30.816,18.72,30.528,18.576,30.528,18.576,30.096,18.432,30.096,18.432,29.52,18.288,29.52,18.288,27.36,18.432,27.36,18.432,26.784,18.576,26.784,18.576,26.496,18.72,26.496,18.72,26.208,18.864,26.208,18.864,25.92,19.008,25.92,19.008,25.632,19.152,25.632,19.152,25.488,19.296,25.488,19.296,25.344,19.44,25.344,19.44,25.056,19.584,25.056,19.584,24.912,19.728,24.912,19.728,24.768,19.872,24.768,19.872,24.624,20.016,24.624,20.016,24.48,20.304,24.48,20.304,24.336,20.448,24.336,20.448,22.752,20.304,22.752,20.304,22.608"  stroke="none" stroke-width="0"/>
     <polygon fill="black" points="26.784,62.208,26.784,62.352,26.64,62.352,26.64,62.496,26.496,62.496,26.496,62.64,26.208,62.64,26.208,62.784,25.92,62.784,25.92,62.928,25.776,62.928,25.776,63.072,25.344,63.072,25.344,63.216,24.912,63.216,24.912,63.36,24.048,63.36,24.048,63.504,33.84,63.504,33.84,62.208"  stroke="none" stroke-width="0"/>
     <polygon fill="black" points="16.848,63.504,16.848,63.648,33.84,63.648,33.84,63.504"  stroke="none" stroke-width="0"/>
     <polygon fill="black" points="16.848,63.504,16.848,63.648,33.84,63.648,33.84,63.504"  stroke="none" stroke-width="0"/>
     <polygon fill="black" points="16.848,63.648,16.848,81.504,16.992,81.504,16.992,81.648,17.136,81.648,17.136,81.792,17.424,81.792,17.424,81.936,17.568,81.936,17.568,82.08,17.712,82.08,17.712,82.224,17.856,82.224,17.856,82.368,18,82.368,18,82.512,18.144,82.512,18.144,82.656,18.288,82.656,18.288,82.8,18.432,82.8,18.432,82.944,18.576,82.944,18.576,83.088,18.72,83.088,18.72,83.376,18.864,83.376,18.864,83.52,19.008,83.52,19.008,83.808,19.152,83.808,19.152,83.952,19.296,83.952,19.296,84.24,19.44,84.24,19.44,84.528,19.584,84.528,19.584,84.816,19.728,84.816,19.728,85.104,19.872,85.104,19.872,85.536,20.016,85.536,20.016,86.112,20.16,86.112,20.16,88.992,27.936,88.992,27.936,89.136,28.656,89.136,28.656,89.28,29.088,89.28,29.088,89.424,29.376,89.424,29.376,89.568,29.664,89.568,29.664,89.712,29.952,89.712,29.952,89.856,30.24,89.856,30.24,90,30.384,90,30.384,90.144,30.672,90.144,30.672,90.288,30.816,90.288,30.816,90.432,31.104,90.432,31.104,90.576,31.248,90.576,31.248,90.72,31.392,90.72,31.392,90.864,31.536,90.864,31.536,91.008,31.68,91.008,31.68,91.152,31.824,91.152,31.824,91.296,31.968,91.296,31.968,91.44,32.112,91.44,32.112,91.584,32.256,91.584,32.256,91.728,32.4,91.728,32.4,92.016,33.84,92.016,33.84,63.648"  stroke="none" stroke-width="0"/>
     <polygon fill="black" points="20.16,88.992,20.16,89.136,20.016,89.136,20.016,89.856,19.872,89.856,19.872,90.288,19.728,90.288,19.728,90.576,19.584,90.576,19.584,90.864,19.44,90.864,19.44,91.152,19.296,91.152,19.296,91.44,19.152,91.44,19.152,91.584,19.008,91.584,19.008,91.872,18.864,91.872,18.864,92.016,18.72,92.016,18.72,92.16,18.576,92.16,18.576,92.448,18.432,92.448,18.432,92.592,18.288,92.592,18.288,92.736,18.144,92.736,18.144,92.88,18,92.88,18,93.024,17.856,93.024,17.856,93.168,17.712,93.168,17.712,93.312,17.568,93.312,17.568,93.456,17.28,93.456,17.28,93.6,17.136,93.6,17.136,93.744,16.992,93.744,16.992,93.888,16.704,93.888,16.704,94.032,16.56,94.032,16.56,94.176,16.272,94.176,16.272,94.32,15.984,94.32,15.984,94.464,15.696,94.464,15.696,94.608,15.264,94.608,15.264,94.752,14.832,94.752,14.832,94.896,14.112,94.896,14.112,95.04,19.296,95.04,19.296,94.464,19.44,94.464,19.44,93.888,19.584,93.888,19.584,93.6,19.728,93.6,19.728,93.168,19.872,93.168,19.872,92.88,20.016,92.88,20.016,92.736,20.16,92.736,20.16,92.448,20.304,92.448,20.304,92.304,20.448,92.304,20.448,92.016,20.592,92.016,20.592,91.872,20.736,91.872,20.736,91.728,20.88,91.728,20.88,91.44,21.024,91.44,21.024,91.296,21.168,91.296,21.168,91.152,21.312,91.152,21.312,91.008,21.456,91.008,21.456,90.864,21.6,90.864,21.6,90.72,21.888,90.72,21.888,90.576,22.032,90.576,22.032,90.432,22.176,90.432,22.176,90.288,22.32,90.288,22.32,90.144,22.608,90.144,22.608,90,22.752,90,22.752,89.856,23.04,89.856,23.04,89.712,23.328,89.712,23.328,89.568,23.616,89.568,23.616,89.424,24.048,89.424,24.048,89.28,24.48,89.28,24.48,89.136,25.056,89.136,25.056,88.992"  stroke="none" stroke-width="0"/>
     <polygon fill="black" points="0,95.04,0,95.184,19.296,95.184,19.296,95.04"  stroke="none" stroke-width="0"/>
     <polygon fill="black" points="0,95.04,0,95.184,19.296,95.184,19.296,95.04"  stroke="none" stroke-width="0"/>
     <polygon fill="black" points="0,95.184,0,97.632,14.256,97.632,14.256,97.776,14.976,97.776,14.976,97.92,15.408,97.92,15.408,98.064,15.696,98.064,15.696,98.208,15.984,98.208,15.984,98.352,16.272,98.352,16.272,98.496,16.56,98.496,16.56,98.64,16.704,98.64,16.704,98.784,16.992,98.784,16.992,98.928,17.136,98.928,17.136,99.072,17.424,99.072,17.424,99.216,17.568,99.216,17.568,99.36,17.712,99.36,17.712,99.504,17.856,99.504,17.856,99.648,18,99.648,18,99.792,18.144,99.792,18.144,99.936,18.288,99.936,18.288,100.08,18.432,100.08,18.432,100.224,18.576,100.224,18.576,100.368,18.72,100.368,18.72,100.656,18.864,100.656,18.864,100.8,19.008,100.8,19.008,101.088,19.152,101.088,19.152,101.232,19.296,101.232,19.296,101.52,19.44,101.52,19.44,101.808,19.584,101.808,19.584,102.096,19.728,102.096,19.728,102.384,19.872,102.384,19.872,102.816,20.016,102.816,20.016,103.392,20.16,103.392,20.16,103.68,25.2,103.68,25.2,103.536,24.48,103.536,24.48,103.392,24.048,103.392,24.048,103.248,23.76,103.248,23.76,103.104,23.328,103.104,23.328,102.96,23.184,102.96,23.184,102.816,22.896,102.816,22.896,102.672,22.608,102.672,22.608,102.528,22.464,102.528,22.464,102.384,22.176,102.384,22.176,102.24,22.032,102.24,22.032,102.096,21.888,102.096,21.888,101.952,21.744,101.952,21.744,101.808,21.456,101.808,21.456,101.664,21.312,101.664,21.312,101.52,21.168,101.52,21.168,101.376,21.024,101.376,21.024,101.088,20.88,101.088,20.88,100.944,20.736,100.944,20.736,100.8,20.592,100.8,20.592,100.656,20.448,100.656,20.448,100.368,20.304,100.368,20.304,100.224,20.16,100.224,20.16,99.936,20.016,99.936,20.016,99.648,19.872,99.648,19.872,99.36,19.728,99.36,19.728,99.072,19.584,99.072,19.584,98.784,19.44,98.784,19.44,98.208,19.296,98.208,19.296,97.488,19.152,97.488,19.152,95.184"  stroke="none" stroke-width="0"/>
     <polygon fill="black" points="0,97.632,0,112.32,11.52,112.32,11.52,112.176,10.8,112.176,10.8,112.032,10.368,112.032,10.368,111.888,10.08,111.888,10.08,111.744,9.648,111.744,9.648,111.6,9.504,111.6,9.504,111.456,9.216,111.456,9.216,111.312,8.928,111.312,8.928,111.168,8.784,111.168,8.784,111.024,8.496,111.024,8.496,110.88,8.352,110.88,8.352,110.736,8.208,110.736,8.208,110.592,8.064,110.592,8.064,110.448,7.776,110.448,7.776,110.304,7.632,110.304,7.632,110.16,7.488,110.16,7.488,110.016,7.344,110.016,7.344,109.728,7.2,109.728,7.2,109.584,7.056,109.584,7.056,109.44,6.912,109.44,6.912,109.296,6.768,109.296,6.768,109.008,6.624,109.008,6.624,108.864,6.48,108.864,6.48,108.576,6.336,108.576,6.336,108.288,6.192,108.288,6.192,108,6.048,108,6.048,107.712,5.904,107.712,5.904,107.424,5.76,107.424,5.76,106.848,5.616,106.848,5.616,106.128,5.472,106.128,5.472,103.824,5.616,103.824,5.616,103.104,5.76,103.104,5.76,102.528,5.904,102.528,5.904,102.24,6.048,102.24,6.048,101.808,6.192,101.808,6.192,101.52,6.336,101.52,6.336,101.376,6.48,101.376,6.48,101.088,6.624,101.088,6.624,100.944,6.768,100.944,6.768,100.656,6.912,100.656,6.912,100.512,7.056,100.512,7.056,100.368,7.2,100.368,7.2,100.08,7.344,100.08,7.344,99.936,7.488,99.936,7.488,99.792,7.632,99.792,7.632,99.648,7.776,99.648,7.776,99.504,7.92,99.504,7.92,99.36,8.208,99.36,8.208,99.216,8.352,99.216,8.352,99.072,8.496,99.072,8.496,98.928,8.64,98.928,8.64,98.784,8.928,98.784,8.928,98.64,9.072,98.64,9.072,98.496,9.36,98.496,9.36,98.352,9.648,98.352,9.648,98.208,9.936,98.208,9.936,98.064,10.368,98.064,10.368,97.92,10.8,97.92,10.8,97.776,11.376,97.776,11.376,97.632"  stroke="none" stroke-width="0"/>
     <polygon fill="black" points="32.4,100.656,32.4,100.8,32.256,100.8,32.256,101.088,32.112,101.088,32.112,101.232,31.968,101.232,31.968,101.376,31.824,101.376,31.824,101.52,31.68,101.52,31.68,101.664,31.536,101.664,31.536,101.808,31.392,101.808,31.392,101.952,31.248,101.952,31.248,102.096,30.96,102.096,30.96,102.24,30.816,102.24,30.816,102.384,30.672,102.384,30.672,102.528,30.384,102.528,30.384,102.672,30.24,102.672,30.24,102.816,29.952,102.816,29.952,102.96,29.664,102.96,29.664,103.104,29.376,103.104,29.376,103.248,28.944,103.248,28.944,103.392,28.512,103.392,28.512,103.536,27.792,103.536,27.792,103.68,33.84,103.68,33.84,100.656"  stroke="none" stroke-width="0"/>
     <polygon fill="black" points="153.648,103.248,153.648,103.536,155.376,103.536,155.376,103.392,156.096,103.392,156.096,103.248"  stroke="none" stroke-width="0"/>
     <polygon fill="black" points="20.16,103.68,20.16,103.824,33.84,103.824,33.84,103.68"  stroke="none" stroke-width="0"/>
     <polygon fill="black" points="20.16,103.68,20.16,103.824,33.84,103.824,33.84,103.68"  stroke="none" stroke-width="0"/>
     <polygon fill="black" points="20.16,103.824,20.16,106.416,20.016,106.416,20.016,107.136,19.872,107.136,19.872,107.568,19.728,107.568,19.728,107.856,19.584,107.856,19.584,108.144,19.44,108.144,19.44,108.432,19.296,108.432,19.296,108.72,19.152,108.72,19.152,108.864,19.008,108.864,19.008,109.152,18.864,109.152,18.864,109.296,18.72,109.296,18.72,109.44,18.576,109.44,18.576,109.728,18.432,109.728,18.432,109.872,18.288,109.872,18.288,110.016,18.144,110.016,18.144,110.16,18,110.16,18,110.304,17.856,110.304,17.856,110.448,17.712,110.448,17.712,110.592,17.568,110.592,17.568,110.736,17.28,110.736,17.28,110.88,17.136,110.88,17.136,111.024,16.992,111.024,16.992,111.168,16.704,111.168,16.704,111.312,16.56,111.312,16.56,111.456,16.272,111.456,16.272,111.6,15.984,111.6,15.984,111.744,15.696,111.744,15.696,111.888,15.264,111.888,15.264,112.032,14.832,112.032,14.832,112.176,14.112,112.176,14.112,112.32,33.84,112.32,33.84,103.824"  stroke="none" stroke-width="0"/>
     <polygon fill="black" points="0,112.32,0,112.464,33.84,112.464,33.84,112.32"  stroke="none" stroke-width="0"/>
     <polygon fill="black" points="0,112.32,0,112.464,33.84,112.464,33.84,112.32"  stroke="none" stroke-width="0"/>
     <polygon fill="black" points="0,112.464,0,124.56,32.544,124.56,32.544,114.192,32.688,114.192,32.688,114.048,33.84,114.048,33.84,112.464"  stroke="none" stroke-width="0"/>
     <polygon fill="black" points="63.648,122.4,63.648,122.544,63.504,122.544,63.504,122.688,63.36,122.688,63.36,122.832,63.216,122.832,63.216,122.976,63.072,122.976,63.072,123.12,62.928,123.12,62.928,123.264,62.784,123.264,62.784,123.408,62.64,123.408,62.64,123.552,62.496,123.552,62.496,123.696,62.352,123.696,62.352,123.84,62.064,123.84,62.064,123.984,61.776,123.984,61.776,124.128,61.488,124.128,61.488,124.272,61.2,124.272,61.2,124.416,60.768,124.416,60.768,124.56,65.088,124.56,65.088,122.4"  stroke="none" stroke-width="0"/>
     <polygon fill="black" points="96.048,122.544,96.048,122.688,95.904,122.688,95.904,122.832,95.76,122.832,95.76,122.976,95.616,122.976,95.616,123.12,95.472,123.12,95.472,123.264,95.328,123.264,95.328,123.408,95.184,123.408,95.184,123.552,95.04,123.552,95.04,123.696,94.896,123.696,94.896,123.84,94.608,123.84,94.608,123.984,94.32,123.984,94.32,124.128,94.032,124.128,94.032,124.272,93.744,124.272,93.744,124.416,93.312,124.416,93.312,124.56,97.488,124.56,97.488,122.544"  stroke="none" stroke-width="0"/>
     <polygon fill="black" points="128.448,122.544,128.448,122.688,128.304,122.688,128.304,122.832,128.16,122.832,128.16,122.976,128.016,122.976,128.016,123.12,127.872,123.12,127.872,123.264,127.728,123.264,127.728,123.408,127.584,123.408,127.584,123.552,127.44,123.552,127.44,123.696,127.296,123.696,127.296,123.84,127.008,123.84,127.008,123.984,126.72,123.984,126.72,124.128,126.432,124.128,126.432,124.272,126.144,124.272,126.144,124.416,125.712,124.416,125.712,124.56,129.888,124.56,129.888,122.544"  stroke="none" stroke-width="0"/>
     <polygon fill="black" points="54.144,123.12,54.144,123.264,53.568,123.264,53.568,123.408,43.056,123.408,43.056,124.56,57.888,124.56,57.888,124.416,57.456,124.416,57.456,124.272,57.168,124.272,57.168,124.128,56.88,124.128,56.88,123.984,56.592,123.984,56.592,123.84,56.448,123.84,56.448,123.696,56.16,123.696,56.16,123.552,56.016,123.552,56.016,123.408,55.872,123.408,55.872,123.264,55.728,123.264,55.728,123.12"  stroke="none" stroke-width="0"/>
     <polygon fill="black" points="86.544,123.12,86.544,123.264,85.968,123.264,85.968,123.408,75.6,123.408,75.6,124.56,90.432,124.56,90.432,124.416,90,124.416,90,124.272,89.712,124.272,89.712,124.128,89.424,124.128,89.424,123.984,89.136,123.984,89.136,123.84,88.992,123.84,88.992,123.696,88.704,123.696,88.704,123.552,88.56,123.552,88.56,123.408,88.416,123.408,88.416,123.264,88.272,123.264,88.272,123.12"  stroke="none" stroke-width="0"/>
     <polygon fill="black" points="118.944,123.12,118.944,123.264,118.368,123.264,118.368,123.408,108,123.408,108,124.56,122.832,124.56,122.832,124.416,122.4,124.416,122.4,124.272,122.112,124.272,122.112,124.128,121.824,124.128,121.824,123.984,121.536,123.984,121.536,123.84,121.392,123.84,121.392,123.696,121.104,123.696,121.104,123.552,120.96,123.552,120.96,123.408,120.816,123.408,120.816,123.264,120.672,123.264,120.672,123.12"  stroke="none" stroke-width="0"/>
     <polygon fill="black" points="151.344,123.12,151.344,123.264,150.768,123.264,150.768,123.408,140.4,123.408,140.4,124.56,155.232,124.56,155.232,124.416,154.8,124.416,154.8,124.272,154.512,124.272,154.512,124.128,154.224,124.128,154.224,123.984,153.936,123.984,153.936,123.84,153.792,123.84,153.792,123.696,153.504,123.696,153.504,123.552,153.36,123.552,153.36,123.408,153.216,123.408,153.216,123.264,153.072,123.264,153.072,123.12"  stroke="none" stroke-width="0"/>
     <polygon fill="black" points="0,124.56,0,124.704,164.016,124.704,164.016,124.56"  stroke="none" stroke-width="0"/>
     <polygon fill="black" points="0,124.56,0,124.704,164.016,124.704,164.016,124.56"  stroke="none" stroke-width="0"/>
     <polygon fill="black" points="0,124.56,0,124.704,164.016,124.704,164.016,124.56"  stroke="none" stroke-width="0"/>
     <polygon fill="black" points="0,124.56,0,124.704,164.016,124.704,164.016,124.56"  stroke="none" stroke-width="0"/>
     <polygon fill="black" points="0,124.56,0,124.704,164.016,124.704,164.016,124.56"  stroke="none" stroke-width="0"/>
     <polygon fill="black" points="0,124.56,0,124.704,164.016,124.704,164.016,124.56"  stroke="none" stroke-width="0"/>
     <polygon fill="black" points="0,124.56,0,124.704,164.016,124.704,164.016,124.56"  stroke="none" stroke-width="0"/>
     <polygon fill="black" points="0,124.56,0,124.704,164.016,124.704,164.016,124.56"  stroke="none" stroke-width="0"/>
     <polygon fill="black" points="0,124.56,0,124.704,164.016,124.704,164.016,124.56"  stroke="none" stroke-width="0"/>
     <polygon fill="black" points="0,124.704,0,135.648,164.016,135.648,164.016,124.704"  stroke="none" stroke-width="0"/>
     <g  id="connector0pad">
      <circle fill="black" cx="132.34"  cy="5.93765" stroke="none" r="2.7" stroke-width="0"/>
     </g>
    </g>
   </g>
  </g>
  <g partID="2379370">
   <g transform="translate(52.56,17.712)">
    <g  id="groundplane">
     <polygon fill="black" points="0,0,0,1.44,0.144,1.44,0.144,1.728,0.288,1.728,0.288,2.016,0.432,2.016,0.432,2.448,0.576,2.448,0.576,2.88,0.72,2.88,0.72,5.184,0.576,5.184,0.576,5.616,0.432,5.616,0.432,7.2,23.328,7.2,23.328,5.472,23.184,5.472,23.184,4.752,23.04,4.752,23.04,3.312,23.184,3.312,23.184,2.592,23.328,2.592,23.328,2.16,23.472,2.16,23.472,1.872,23.616,1.872,23.616,1.584,23.76,1.584,23.76,0"  stroke="none" stroke-width="0"/>
     <g  id="connector0pad">
      <circle fill="black" cx="5.273"  cy="3.549" stroke="none" r="2.7" stroke-width="0"/>
     </g>
    </g>
   </g>
  </g>
  <g partID="2379380">
   <g transform="translate(123.984,32.976)">
    <g  id="groundplane">
     <polygon fill="black" points="0,0,0,1.44,0.144,1.44,0.144,1.872,0.288,1.872,0.288,27.216,0.432,27.216,0.432,73.44,4.464,73.44,4.464,73.584,5.184,73.584,5.184,73.728,5.616,73.728,5.616,73.872,5.904,73.872,5.904,74.016,6.192,74.016,6.192,74.16,6.336,74.16,6.336,74.304,6.624,74.304,6.624,74.448,6.768,74.448,6.768,74.592,6.912,74.592,6.912,74.736,7.2,74.736,7.2,74.88,7.344,74.88,7.344,75.024,7.488,75.024,7.488,75.168,7.632,75.168,7.632,75.456,7.776,75.456,7.776,75.6,7.92,75.6,7.92,75.744,8.064,75.744,8.064,76.032,8.208,76.032,8.208,76.176,8.352,76.176,8.352,76.464,8.496,76.464,8.496,76.752,8.64,76.752,8.64,77.184,8.784,77.184,8.784,77.904,8.928,77.904,8.928,79.632,8.784,79.632,8.784,80.352,8.64,80.352,8.64,80.784,8.496,80.784,8.496,81.072,8.352,81.072,8.352,81.36,8.208,81.36,8.208,81.504,8.064,81.504,8.064,81.792,7.92,81.792,7.92,81.936,7.776,81.936,7.776,82.08,7.632,82.08,7.632,82.224,7.488,82.224,7.488,82.368,7.344,82.368,7.344,82.512,7.2,82.512,7.2,82.656,7.056,82.656,7.056,82.8,6.912,82.8,6.912,82.944,6.768,82.944,6.768,83.088,6.624,83.088,6.624,83.232,6.336,83.232,6.336,83.376,6.048,83.376,6.048,84.96,6.192,84.96,6.192,85.104,6.48,85.104,6.48,85.248,6.624,85.248,6.624,85.392,6.768,85.392,6.768,85.536,7.056,85.536,7.056,85.68,7.2,85.68,7.2,85.824,7.344,85.824,7.344,85.968,7.488,85.968,7.488,86.256,7.632,86.256,7.632,86.4,9.072,86.4,9.072,84.384,9.216,84.384,9.216,84.24,16.416,84.24,16.416,73.44,18.432,73.44,18.432,38.448,18.288,38.448,18.288,22.608,16.56,22.608,16.56,22.464,16.416,22.464,16.416,12.672,16.56,12.672,16.56,12.528,24.624,12.528,24.624,0"  stroke="none" stroke-width="0"/>
     <polygon fill="black" points="0.432,73.44,0.432,73.728,2.16,73.728,2.16,73.584,2.88,73.584,2.88,73.44"  stroke="none" stroke-width="0"/>
     <g  id="connector0pad">
      <circle fill="black" cx="5.369"  cy="5.86632" stroke="none" r="2.7" stroke-width="0"/>
     </g>
    </g>
   </g>
  </g>
  <g partID="2379390">
   <g transform="translate(91.728,40.176)">
    <g  id="groundplane">
     <polygon fill="black" points="0,0,0,1.584,0.144,1.584,0.144,2.304,0.288,2.304,0.288,66.24,4.32,66.24,4.32,66.384,5.04,66.384,5.04,66.528,5.472,66.528,5.472,66.672,5.76,66.672,5.76,66.816,6.048,66.816,6.048,66.96,6.192,66.96,6.192,67.104,6.48,67.104,6.48,67.248,6.624,67.248,6.624,67.392,6.768,67.392,6.768,67.536,7.056,67.536,7.056,67.68,7.2,67.68,7.2,67.824,7.344,67.824,7.344,67.968,7.488,67.968,7.488,68.256,7.632,68.256,7.632,68.4,7.776,68.4,7.776,68.544,7.92,68.544,7.92,68.832,8.064,68.832,8.064,68.976,8.208,68.976,8.208,69.264,8.352,69.264,8.352,69.552,8.496,69.552,8.496,69.984,8.64,69.984,8.64,70.704,8.784,70.704,8.784,72.432,8.64,72.432,8.64,73.152,8.496,73.152,8.496,73.584,8.352,73.584,8.352,73.872,8.208,73.872,8.208,74.16,8.064,74.16,8.064,74.304,7.92,74.304,7.92,74.592,7.776,74.592,7.776,74.736,7.632,74.736,7.632,74.88,7.488,74.88,7.488,75.024,7.344,75.024,7.344,75.168,7.2,75.168,7.2,75.312,7.056,75.312,7.056,75.456,6.912,75.456,6.912,75.6,6.768,75.6,6.768,75.744,6.624,75.744,6.624,75.888,6.48,75.888,6.48,76.032,6.192,76.032,6.192,76.176,5.904,76.176,5.904,77.76,6.048,77.76,6.048,77.904,6.336,77.904,6.336,78.048,6.48,78.048,6.48,78.192,6.624,78.192,6.624,78.336,6.912,78.336,6.912,78.48,7.056,78.48,7.056,78.624,7.2,78.624,7.2,78.768,7.344,78.768,7.344,79.056,7.488,79.056,7.488,79.2,8.928,79.2,8.928,77.184,9.072,77.184,9.072,77.04,16.272,77.04,16.272,66.24,18.288,66.24,18.288,31.248,18.144,31.248,18.144,15.408,16.416,15.408,16.416,15.264,16.272,15.264,16.272,5.472,16.416,5.472,16.416,5.328,24.48,5.328,24.48,0"  stroke="none" stroke-width="0"/>
     <polygon fill="black" points="0.288,66.24,0.288,66.528,2.016,66.528,2.016,66.384,2.736,66.384,2.736,66.24"  stroke="none" stroke-width="0"/>
     <g  id="connector0pad">
      <circle fill="black" cx="5.353"  cy="5.87576" stroke="none" r="2.7" stroke-width="0"/>
     </g>
    </g>
   </g>
  </g>
  <g partID="2379400">
   <g transform="translate(51.408,47.376)">
    <g  id="groundplane">
     <polygon fill="black" points="1.872,0,1.872,8.208,0,8.208,0,59.04,12.096,59.04,12.096,59.184,12.816,59.184,12.816,59.328,13.248,59.328,13.248,59.472,13.536,59.472,13.536,59.616,13.824,59.616,13.824,59.76,13.968,59.76,13.968,59.904,14.256,59.904,14.256,60.048,14.4,60.048,14.4,60.192,14.544,60.192,14.544,60.336,14.832,60.336,14.832,60.48,14.976,60.48,14.976,60.624,15.12,60.624,15.12,60.768,15.264,60.768,15.264,61.056,15.408,61.056,15.408,61.2,15.552,61.2,15.552,61.344,15.696,61.344,15.696,61.632,15.84,61.632,15.84,61.776,15.984,61.776,15.984,62.064,16.128,62.064,16.128,62.352,16.272,62.352,16.272,62.784,16.416,62.784,16.416,63.504,16.56,63.504,16.56,65.232,16.416,65.232,16.416,65.952,16.272,65.952,16.272,66.384,16.128,66.384,16.128,66.672,15.984,66.672,15.984,66.96,15.84,66.96,15.84,67.104,15.696,67.104,15.696,67.392,15.552,67.392,15.552,67.536,15.408,67.536,15.408,67.68,15.264,67.68,15.264,67.824,15.12,67.824,15.12,67.968,14.976,67.968,14.976,68.112,14.832,68.112,14.832,68.256,14.688,68.256,14.688,68.4,14.544,68.4,14.544,68.544,14.4,68.544,14.4,68.688,14.256,68.688,14.256,68.832,13.968,68.832,13.968,68.976,13.68,68.976,13.68,70.56,13.824,70.56,13.824,70.704,14.112,70.704,14.112,70.848,14.256,70.848,14.256,70.992,14.4,70.992,14.4,71.136,14.688,71.136,14.688,71.28,14.832,71.28,14.832,71.424,14.976,71.424,14.976,71.568,15.12,71.568,15.12,71.856,15.264,71.856,15.264,72,15.408,72,15.408,72.144,16.848,72.144,16.848,69.984,16.992,69.984,16.992,69.84,24.192,69.84,24.192,59.04,26.208,59.04,26.208,24.048,26.064,24.048,26.064,8.208,24.336,8.208,24.336,8.064,24.192,8.064,24.192,0"  stroke="none" stroke-width="0"/>
     <polygon fill="black" points="4.896,59.04,4.896,59.184,5.616,59.184,5.616,59.328,6.048,59.328,6.048,59.472,6.336,59.472,6.336,59.616,6.624,59.616,6.624,59.76,6.768,59.76,6.768,59.904,8.496,59.904,8.496,59.76,8.784,59.76,8.784,59.616,9.072,59.616,9.072,59.472,9.36,59.472,9.36,59.328,9.792,59.328,9.792,59.184,10.512,59.184,10.512,59.04"  stroke="none" stroke-width="0"/>
     <g  id="connector0pad">
      <circle fill="black" cx="5.328"  cy="5.79966" stroke="none" r="2.7" stroke-width="0"/>
     </g>
    </g>
   </g>
  </g>
  <g partID="2379410">
   <g transform="translate(29.664,47.808)">
    <g  id="groundplane">
     <polygon fill="black" points="11.952,0,11.952,0.144,11.664,0.144,11.664,0.288,11.376,0.288,11.376,0.432,11.232,0.432,11.232,0.576,10.944,0.576,10.944,0.72,10.656,0.72,10.656,0.864,10.368,0.864,10.368,1.008,10.08,1.008,10.08,1.152,9.936,1.152,9.936,1.296,9.648,1.296,9.648,1.44,9.36,1.44,9.36,1.584,9.072,1.584,9.072,1.728,8.928,1.728,8.928,1.872,8.64,1.872,8.64,2.016,8.352,2.016,8.352,2.16,8.064,2.16,8.064,2.304,7.92,2.304,7.92,2.448,7.632,2.448,7.632,2.592,7.344,2.592,7.344,2.736,7.056,2.736,7.056,2.88,6.912,2.88,6.912,3.024,6.624,3.024,6.624,3.168,6.336,3.168,6.336,3.312,6.048,3.312,6.048,3.456,5.76,3.456,5.76,3.6,5.616,3.6,5.616,3.744,5.328,3.744,5.328,3.888,5.04,3.888,5.04,4.032,4.752,4.032,4.752,4.176,4.608,4.176,4.608,4.32,4.32,4.32,4.32,4.464,4.032,4.464,4.032,4.608,3.744,4.608,3.744,4.752,3.6,4.752,3.6,4.896,3.312,4.896,3.312,5.04,3.024,5.04,3.024,5.184,2.736,5.184,2.736,5.328,2.592,5.328,2.592,5.472,2.304,5.472,2.304,5.616,2.016,5.616,2.016,5.76,1.728,5.76,1.728,6.048,1.584,6.048,1.584,6.336,1.44,6.336,1.44,6.48,1.296,6.48,1.296,6.768,1.152,6.768,1.152,6.912,1.008,6.912,1.008,7.056,0.864,7.056,0.864,7.2,0.72,7.2,0.72,7.344,0.576,7.344,0.576,7.488,0.432,7.488,0.432,7.632,0.288,7.632,0.288,7.776,0.144,7.776,0.144,7.92,0,7.92,0,9.36,0.144,9.36,0.144,9.504,12.672,9.504,12.672,9.648,13.104,9.648,13.104,9.792,13.536,9.792,13.536,9.936,13.68,9.936,13.68,10.08,13.968,10.08,13.968,10.224,15.408,10.224,15.408,7.776,13.68,7.776,13.68,7.632,13.536,7.632,13.536,0"  stroke="none" stroke-width="0"/>
     <g  id="connector0pad">
      <circle fill="black" cx="9.19498"  cy="6.0345" stroke="none" r="2.7" stroke-width="0"/>
     </g>
    </g>
   </g>
  </g>
  <g partID="2379420">
   <g transform="translate(46.224,116.928)">
    <g  id="groundplane">
     <g  id="connector0pad">
      <polygon fill="black" points="0,0,0,1.584,5.328,1.584,5.328,0"  stroke="none" stroke-width="0"/>
     </g>
    </g>
   </g>
  </g>
  <g partID="2379430">
   <g transform="translate(78.768,116.928)">
    <g  id="groundplane">
     <g  id="connector0pad">
      <polygon fill="black" points="0,0,0,1.584,5.184,1.584,5.184,0"  stroke="none" stroke-width="0"/>
     </g>
    </g>
   </g>
  </g>
  <g partID="2379440">
   <g transform="translate(111.168,116.928)">
    <g  id="groundplane">
     <g  id="connector0pad">
      <polygon fill="black" points="0,0,0,1.584,5.184,1.584,5.184,0"  stroke="none" stroke-width="0"/>
     </g>
    </g>
   </g>
  </g>
  <g partID="2379450">
   <g transform="translate(143.568,116.928)">
    <g  id="groundplane">
     <g  id="connector0pad">
      <polygon fill="black" points="0,0,0,1.584,5.184,1.584,5.184,0"  stroke="none" stroke-width="0"/>
     </g>
    </g>
   </g>
  </g>
  <g partID="2379460">
   <g transform="translate(27.144,91.872)">
    <g  id="groundplane">
     <polygon fill="black" points="0,0,4.968,0,4.968,3.888,0,3.888"  stroke="none" stroke-width="0"/>
    </g>
   </g>
  </g>
  <g partID="2379470">
   <g transform="translate(13.464,111.456)">
    <g  id="groundplane">
     <polygon fill="black" points="0,0,4.968,0,4.968,4.032,0,4.032"  stroke="none" stroke-width="0"/>
    </g>
   </g>
  </g>
  <g partID="2379480">
   <g transform="translate(8.352,105.48)">
    <g  id="groundplane">
     <polygon fill="black" points="0,0,4.032,0,4.032,4.968,0,4.968"  stroke="none" stroke-width="0"/>
    </g>
   </g>
  </g>
  <g partID="2379490">
   <g transform="translate(126,9.072)">
    <g  id="groundplane">
     <polygon fill="black" points="0,0,2.808,0,2.808,3.888,0,3.888"  stroke="none" stroke-width="0"/>
    </g>
   </g>
  </g>
  <g partID="2379500">
   <g transform="translate(61.128,106.128)">
    <g  id="groundplane">
     <polygon fill="black" points="0,0,2.952,0,2.952,3.888,0,3.888"  stroke="none" stroke-width="0"/>
    </g>
   </g>
  </g>
  <g partID="2379510">
   <g transform="translate(64.08,110.088)">
    <g  id="groundplane">
     <polygon fill="black" points="0,0,3.888,0,3.888,2.952,0,2.952"  stroke="none" stroke-width="0"/>
    </g>
   </g>
  </g>
  <g partID="2379520">
   <g transform="translate(161.424,110.088)">
    <g  id="groundplane">
     <polygon fill="black" points="0,0,3.888,0,3.888,2.952,0,2.952"  stroke="none" stroke-width="0"/>
    </g>
   </g>
  </g>
  <g partID="2379530">
   <g transform="translate(93.672,106.128)">
    <g  id="groundplane">
     <polygon fill="black" points="0,0,2.952,0,2.952,3.888,0,3.888"  stroke="none" stroke-width="0"/>
    </g>
   </g>
  </g>
  <g partID="2379540">
   <g transform="translate(96.624,110.088)">
    <g  id="groundplane">
     <polygon fill="black" points="0,0,3.888,0,3.888,2.952,0,2.952"  stroke="none" stroke-width="0"/>
    </g>
   </g>
  </g>
  <g partID="2379550">
   <g transform="translate(161.28,120.888)">
    <g  id="groundplane">
     <polygon fill="black" points="0,0,3.888,0,3.888,2.952,0,2.952"  stroke="none" stroke-width="0"/>
    </g>
   </g>
  </g>
  <g partID="2379560">
   <g transform="translate(126.072,106.128)">
    <g  id="groundplane">
     <polygon fill="black" points="0,0,2.952,0,2.952,3.888,0,3.888"  stroke="none" stroke-width="0"/>
    </g>
   </g>
  </g>
  <g partID="2379570">
   <g transform="translate(129.024,110.088)">
    <g  id="groundplane">
     <polygon fill="black" points="0,0,3.888,0,3.888,2.952,0,2.952"  stroke="none" stroke-width="0"/>
    </g>
   </g>
  </g>
  <g partID="2373800">
   <g transform="translate(18.8904,5.05198)">
    <g transform="matrix(1,0,0,1,0,0)">
     <g id="copper0">
      <rect width="4.32" x="5.616" y="4.60063" fill="none" height="4.32" stroke="black" id="square" stroke-width="1.44"/>
      <circle fill="none" cx="7.776" cy="6.76063" stroke="black" id="connector0pin" r="2.16" stroke-width="1.44"/>
      <circle fill="none" cx="7.776" cy="16.6819" stroke="black" id="connector1pin" r="2.16" stroke-width="1.44"/>
      <circle fill="none" cx="7.776" cy="26.6031" stroke="black" id="connector2pin" r="2.16" stroke-width="1.44"/>
      <circle fill="none" cx="7.776" cy="36.5244" stroke="black" id="connector3pin" r="2.16" stroke-width="1.44"/>
      <circle fill="none" cx="7.776" cy="46.4457" stroke="black" id="connector4pin" r="2.16" stroke-width="1.44"/>
      <circle fill="none" cx="7.776" cy="56.3669" stroke="black" id="connector5pin" r="2.16" stroke-width="1.44"/>
     </g>
    </g>
   </g>
  </g>
  <g partID="1869980">
   <g transform="translate(39.6264,97.3336)">
    <g  id="copper0">
     <rect width="4.464" x="6.408" y="12.168" fill="none"  height="4.464" stroke="black" stroke-width="1.44"/>
     <circle fill="none" cx="8.64"  cy="14.4" stroke="black" id="connector0pad" r="2.232" stroke-width="1.44"/>
     <circle fill="none" cx="15.84"  cy="14.4" stroke="black" id="connector1pad" r="2.232" stroke-width="1.44"/>
     <circle fill="none" cx="23.04"  cy="14.4" stroke="black" id="connector2pad" r="2.232" stroke-width="1.44"/>
    </g>
   </g>
  </g>
  <g partID="1869020">
   <g transform="translate(104.57,97.3336)">
    <g  id="copper0">
     <rect width="4.464" x="6.408" y="12.168" fill="none"  height="4.464" stroke="black" stroke-width="1.44"/>
     <circle fill="none" cx="8.64"  cy="14.4" stroke="black" id="connector0pad" r="2.232" stroke-width="1.44"/>
     <circle fill="none" cx="15.84"  cy="14.4" stroke="black" id="connector1pad" r="2.232" stroke-width="1.44"/>
     <circle fill="none" cx="23.04"  cy="14.4" stroke="black" id="connector2pad" r="2.232" stroke-width="1.44"/>
    </g>
   </g>
  </g>
  <g partID="1867400">
   <g transform="translate(72.1704,97.3336)">
    <g  id="copper0">
     <rect width="4.464" x="6.408" y="12.168" fill="none"  height="4.464" stroke="black" stroke-width="1.44"/>
     <circle fill="none" cx="8.64"  cy="14.4" stroke="black" id="connector0pad" r="2.232" stroke-width="1.44"/>
     <circle fill="none" cx="15.84"  cy="14.4" stroke="black" id="connector1pad" r="2.232" stroke-width="1.44"/>
     <circle fill="none" cx="23.04"  cy="14.4" stroke="black" id="connector2pad" r="2.232" stroke-width="1.44"/>
    </g>
   </g>
  </g>
  <g partID="1869480">
   <g transform="translate(136.97,97.3336)">
    <g  id="copper0">
     <rect width="4.464" x="6.408" y="12.168" fill="none"  height="4.464" stroke="black" stroke-width="1.44"/>
     <circle fill="none" cx="8.64"  cy="14.4" stroke="black" id="connector0pad" r="2.232" stroke-width="1.44"/>
     <circle fill="none" cx="15.84"  cy="14.4" stroke="black" id="connector1pad" r="2.232" stroke-width="1.44"/>
     <circle fill="none" cx="23.04"  cy="14.4" stroke="black" id="connector2pad" r="2.232" stroke-width="1.44"/>
    </g>
   </g>
  </g>
  <g partID="2291750">
   <g transform="translate(132.506,9.4936)">
    <g transform="matrix(0,1,-1,0,0,0)">
     <g  id="copper0">
      <circle fill="none" cx="5.04"  cy="5.04" stroke="black" id="connector0pin" r="2.088" stroke-width="1.44"/>
     </g>
    </g>
   </g>
  </g>
  <g partID="2339060">
   <g transform="translate(142.37,53.2336)">
    <g transform="matrix(0,-1,1,0,0,0)">
     <g  id="copper0">
      <g  id="copper1">
       <rect width="3.96" x="0.72" y="1.116" fill="none"  height="3.96" stroke="black" stroke-width="1.44"/>
       <circle fill="none" cx="2.7"  cy="3.096" stroke="black" r="1.98" id="connector0pin" stroke-width="1.44"/>
       <circle fill="none" cx="31.5"  cy="3.096" stroke="black" r="1.98" id="connector1pin" stroke-width="1.44"/>
      </g>
     </g>
    </g>
   </g>
  </g>
  <g partID="2011550">
   <g transform="translate(45.1704,53.2336)">
    <g transform="matrix(0,-1,1,0,0,0)">
     <g  id="copper0">
      <g  id="copper1">
       <rect width="3.96" x="0.72" y="1.116" fill="none"  height="3.96" stroke="black" stroke-width="1.44"/>
       <circle fill="none" cx="2.7"  cy="3.096" stroke="black" r="1.98" id="connector0pin" stroke-width="1.44"/>
       <circle fill="none" cx="31.5"  cy="3.096" stroke="black" r="1.98" id="connector1pin" stroke-width="1.44"/>
      </g>
     </g>
    </g>
   </g>
  </g>
  <g partID="2011450">
   <g transform="translate(77.5704,53.2336)">
    <g transform="matrix(0,-1,1,0,0,0)">
     <g  id="copper0">
      <g  id="copper1">
       <rect width="3.96" x="0.72" y="1.116" fill="none"  height="3.96" stroke="black" stroke-width="1.44"/>
       <circle fill="none" cx="2.7"  cy="3.096" stroke="black" r="1.98" id="connector0pin" stroke-width="1.44"/>
       <circle fill="none" cx="31.5"  cy="3.096" stroke="black" r="1.98" id="connector1pin" stroke-width="1.44"/>
      </g>
     </g>
    </g>
   </g>
  </g>
  <g partID="2011350">
   <g transform="translate(109.97,53.2336)">
    <g transform="matrix(0,-1,1,0,0,0)">
     <g  id="copper0">
      <g  id="copper1">
       <rect width="3.96" x="0.72" y="1.116" fill="none"  height="3.96" stroke="black" stroke-width="1.44"/>
       <circle fill="none" cx="2.7"  cy="3.096" stroke="black" r="1.98" id="connector0pin" stroke-width="1.44"/>
       <circle fill="none" cx="31.5"  cy="3.096" stroke="black" r="1.98" id="connector1pin" stroke-width="1.44"/>
      </g>
     </g>
    </g>
   </g>
  </g>
  <g partID="2017150">
   <g transform="translate(125.306,9.4936)">
    <g transform="matrix(0,1,-1,0,0,0)">
     <g  id="copper0">
      <circle fill="none" cx="5.04"  cy="5.04" stroke="black" id="connector0pin" r="2.088" stroke-width="1.44"/>
      <circle fill="none" cx="5.04"  cy="12.24" stroke="black" id="connector1pin" r="2.088" stroke-width="1.44"/>
      <circle fill="none" cx="5.04"  cy="19.44" stroke="black" id="connector2pin" r="2.088" stroke-width="1.44"/>
      <circle fill="none" cx="5.04"  cy="26.64" stroke="black" id="connector3pin" r="2.088" stroke-width="1.44"/>
     </g>
    </g>
   </g>
  </g>
  <g partID="2302410">
   <g transform="translate(3.0504,130.094)">
    <g transform="matrix(0,-1,1,0,0,0)">
     <g  id="copper0">
      <circle fill="none" cx="39.24"  cy="12.96" stroke="black" id="connector0pin" r="4.32" stroke-width="1.44"/>
      <circle fill="none" cx="21.96"  cy="12.96" stroke="black" id="connector1pin" r="4.32" stroke-width="1.44"/>
      <circle fill="none" cx="30.6"  cy="26.64" stroke="black" id="connector2pin" r="4.32" stroke-width="1.44"/>
     </g>
    </g>
   </g>
  </g>
  <g partID="1841780">
   <g transform="translate(135.386,118.934)">
    <g  id="copper0">
     <rect width="4.464" x="0.72" y="1.368" fill="none"  height="4.464" stroke="black" stroke-width="1.44"/>
     <circle fill="none" cx="3.024"  cy="3.6" stroke="black" id="connector0pin" r="2.232" stroke-width="1.44"/>
     <circle fill="none" cx="24.48"  cy="3.6" stroke="black" id="connector1pin" r="2.232" stroke-width="1.44"/>
    </g>
   </g>
  </g>
  <g partID="2272720">
   <g transform="translate(70.5864,118.934)">
    <g  id="copper0">
     <rect width="4.464" x="0.72" y="1.368" fill="none"  height="4.464" stroke="black" stroke-width="1.44"/>
     <circle fill="none" cx="3.024"  cy="3.6" stroke="black" id="connector0pin" r="2.232" stroke-width="1.44"/>
     <circle fill="none" cx="24.48"  cy="3.6" stroke="black" id="connector1pin" r="2.232" stroke-width="1.44"/>
    </g>
   </g>
  </g>
  <g partID="1847140">
   <g transform="translate(38.0424,118.934)">
    <g  id="copper0">
     <rect width="4.464" x="0.72" y="1.368" fill="none"  height="4.464" stroke="black" stroke-width="1.44"/>
     <circle fill="none" cx="3.024"  cy="3.6" stroke="black" id="connector0pin" r="2.232" stroke-width="1.44"/>
     <circle fill="none" cx="24.48"  cy="3.6" stroke="black" id="connector1pin" r="2.232" stroke-width="1.44"/>
    </g>
   </g>
  </g>
  <g partID="1849490">
   <g transform="translate(102.986,118.934)">
    <g  id="copper0">
     <rect width="4.464" x="0.72" y="1.368" fill="none"  height="4.464" stroke="black" stroke-width="1.44"/>
     <circle fill="none" cx="3.024"  cy="3.6" stroke="black" id="connector0pin" r="2.232" stroke-width="1.44"/>
     <circle fill="none" cx="24.48"  cy="3.6" stroke="black" id="connector1pin" r="2.232" stroke-width="1.44"/>
    </g>
   </g>
  </g>
  <g partID="2368890">
   <line stroke="black" stroke-linecap="round" y1="129.734" x1="127.466" y2="129.734" stroke-width="3.456" x2="159.866"/>
  </g>
  <g partID="2369200">
   <line stroke="black" stroke-linecap="round" y1="129.734" x1="95.0664" y2="129.734" stroke-width="3.456" x2="127.466"/>
  </g>
  <g partID="2369470">
   <line stroke="black" stroke-linecap="round" y1="129.734" x1="62.6664" y2="129.734" stroke-width="3.456" x2="95.0664"/>
  </g>
  <g partID="2368380">
   <line stroke="black" stroke-linecap="round" y1="104.694" x1="29.6904" y2="129.733" stroke-width="3.456" x2="29.6904"/>
  </g>
  <g partID="2368550">
   <line stroke="black" stroke-linecap="round" y1="129.734" x1="29.6904" y2="129.734" stroke-width="3.456" x2="62.6664"/>
  </g>
  <g partID="2368720">
   <line stroke="black" stroke-linecap="round" y1="129.734" x1="159.866" y2="125.646" stroke-width="3.456" x2="159.866"/>
  </g>
  <g partID="2369050">
   <line stroke="black" stroke-linecap="round" y1="129.734" x1="127.466" y2="125.646" stroke-width="3.456" x2="127.466"/>
  </g>
  <g partID="2369340">
   <line stroke="black" stroke-linecap="round" y1="129.734" x1="95.0664" y2="125.646" stroke-width="3.456" x2="95.0664"/>
  </g>
  <g partID="2369590">
   <line stroke="black" stroke-linecap="round" y1="129.734" x1="62.6664" y2="125.645" stroke-width="3.456" x2="62.5846"/>
  </g>
  <g partID="2331870">
   <line stroke="black" stroke-linecap="round" y1="52.5936" x1="48.2664" y2="109.422" stroke-width="1.728" x2="48.2664"/>
  </g>
  <g partID="2332060">
   <line stroke="black" stroke-linecap="round" y1="14.5336" x1="96.4984" y2="14.5336" stroke-width="1.728" x2="48.2664"/>
  </g>
  <g partID="2332100">
   <line stroke="black" stroke-linecap="round" y1="16.7016" x1="113.066" y2="19.6736" stroke-width="1.728" x2="113.066"/>
  </g>
  <g partID="2332120">
   <line stroke="black" stroke-linecap="round" y1="16.7016" x1="120.266" y2="21.7336" stroke-width="1.728" x2="120.266"/>
  </g>
  <g partID="2343260">
   <line stroke="black" stroke-linecap="round" y1="21.7336" x1="16.0104" y2="85.654" stroke-width="3.456" x2="16.0104"/>
  </g>
  <g partID="2333640">
   <line stroke="black" stroke-linecap="round" y1="21.7336" x1="23.6264" y2="21.7336" stroke-width="3.456" x2="16.0104"/>
  </g>
  <g partID="2343860">
   <line stroke="black" stroke-linecap="round" y1="14.5336" x1="48.2664" y2="19.6736" stroke-width="1.728" x2="48.2664"/>
  </g>
  <g partID="2343890">
   <line stroke="black" stroke-linecap="round" y1="21.7336" x1="120.266" y2="21.7336" stroke-width="1.728" x2="143.406"/>
  </g>
  <g partID="2343920">
   <line stroke="black" stroke-linecap="round" y1="14.5336" x1="159.946" y2="14.5336" stroke-width="1.728" x2="129.634"/>
  </g>
  <g partID="2331850">
   <line stroke="black" stroke-linecap="round" y1="52.5936" x1="80.6712" y2="109.422" stroke-width="1.728" x2="80.805"/>
  </g>
  <g partID="2331810">
   <line stroke="black" stroke-linecap="round" y1="109.422" x1="145.605" y2="52.5936" stroke-width="1.728" x2="145.471"/>
  </g>
  <g partID="2334980">
   <line stroke="black" stroke-linecap="round" y1="109.422" x1="160.009" y2="14.5336" stroke-width="1.728" x2="159.946"/>
  </g>
  <g partID="2332290">
   <line stroke="black" stroke-linecap="round" y1="31.0907" x1="29.6535" y2="28.934" stroke-width="3.456" x2="41.0664"/>
  </g>
  <g partID="2334610">
   <line stroke="black" stroke-linecap="round" y1="28.9336" x1="41.0664" y2="28.9336" stroke-width="3.456" x2="152.666"/>
  </g>
  <g partID="2332280">
   <line stroke="black" stroke-linecap="round" y1="28.9336" x1="152.666" y2="108.622" stroke-width="3.456" x2="152.805"/>
  </g>
  <g partID="2343180">
   <line stroke="black" stroke-linecap="round" y1="122.534" x1="152.81" y2="122.534" stroke-width="3.456" x2="141.522"/>
  </g>
  <g partID="2341750">
   <line stroke="black" stroke-linecap="round" y1="114.846" x1="152.81" y2="122.534" stroke-width="3.456" x2="152.81"/>
  </g>
  <g partID="2341730">
   <line stroke="black" stroke-linecap="round" y1="114.846" x1="120.41" y2="122.534" stroke-width="3.456" x2="120.41"/>
  </g>
  <g partID="2343150">
   <line stroke="black" stroke-linecap="round" y1="122.534" x1="120.41" y2="122.534" stroke-width="3.456" x2="109.122"/>
  </g>
  <g partID="2332410">
   <line stroke="black" stroke-linecap="round" y1="108.622" x1="120.404" y2="36.2136" stroke-width="3.456" x2="120.266"/>
  </g>
  <g partID="2332400">
   <line stroke="black" stroke-linecap="round" y1="36.2136" x1="120.266" y2="36.1336" stroke-width="3.456" x2="41.0664"/>
  </g>
  <g partID="2334580">
   <line stroke="black" stroke-linecap="round" y1="36.1336" x1="41.0664" y2="40.5013" stroke-width="3.456" x2="29.5101"/>
  </g>
  <g partID="2331830">
   <line stroke="black" stroke-linecap="round" y1="52.5936" x1="113.071" y2="109.422" stroke-width="1.728" x2="113.205"/>
  </g>
  <g partID="2377990">
   <line stroke="black" stroke-linecap="round" y1="43.3336" x1="41.0664" y2="43.4136" stroke-width="3.456" x2="87.9464"/>
  </g>
  <g partID="2332520">
   <line stroke="black" stroke-linecap="round" y1="49.9983" x1="29.311" y2="43.3338" stroke-width="3.456" x2="41.0664"/>
  </g>
  <g partID="2332510">
   <line stroke="black" stroke-linecap="round" y1="43.4136" x1="87.9464" y2="108.622" stroke-width="3.456" x2="88.0075"/>
  </g>
  <g partID="2343120">
   <line stroke="black" stroke-linecap="round" y1="122.534" x1="88.0104" y2="114.846" stroke-width="3.456" x2="88.0104"/>
  </g>
  <g partID="2341710">
   <line stroke="black" stroke-linecap="round" y1="122.534" x1="76.7224" y2="122.534" stroke-width="3.456" x2="88.0104"/>
  </g>
  <g partID="2365350">
   <line stroke="black" stroke-linecap="round" y1="61.3336" x1="41.0664" y2="119.422" stroke-width="3.456" x2="41.0664"/>
  </g>
  <g partID="2365320">
   <line stroke="black" stroke-linecap="round" y1="61.4004" x1="29.7063" y2="61.3334" stroke-width="3.456" x2="41.0664"/>
  </g>
  <g partID="2371310">
   <line stroke="black" stroke-linecap="round" y1="119.422" x1="95.1079" y2="114.845" stroke-width="3.456" x2="95.1689"/>
  </g>
  <g partID="2371380">
   <line stroke="black" stroke-linecap="round" y1="119.422" x1="127.508" y2="114.845" stroke-width="3.456" x2="127.569"/>
  </g>
  <g partID="2371770">
   <line stroke="black" stroke-linecap="round" y1="21.8136" x1="105.866" y2="21.7401" stroke-width="1.728" x2="82.7264"/>
  </g>
  <g partID="2371740">
   <line stroke="black" stroke-linecap="round" y1="16.7016" x1="105.866" y2="21.8136" stroke-width="1.728" x2="105.866"/>
  </g>
  <g partID="2371870">
   <line stroke="black" stroke-linecap="round" y1="119.422" x1="159.908" y2="114.845" stroke-width="3.456" x2="159.969"/>
  </g>
  <g partID="2371960">
   <line stroke="black" stroke-linecap="round" y1="122.534" x1="44.1784" y2="122.534" stroke-width="3.456" x2="55.6104"/>
  </g>
  <g partID="2371990">
   <line stroke="black" stroke-linecap="round" y1="122.534" x1="55.6104" y2="114.845" stroke-width="3.456" x2="55.5079"/>
  </g>
  <g partID="2372070">
   <line stroke="black" stroke-linecap="round" y1="119.422" x1="62.5639" y2="114.845" stroke-width="3.456" x2="62.6249"/>
  </g>
  <g partID="2377420">
   <line stroke="black" stroke-linecap="round" y1="18.6936" x1="26.6664" y2="14.8523" stroke-width="3.456" x2="26.6664"/>
  </g>
 </g>
</svg>
